<svg width="18" height="19" viewBox="0 0 18 19" fill="none" xmlns="http://www.w3.org/2000/svg">
<path d="M2 18.9463C1.45 18.9463 0.979167 18.7505 0.5875 18.3588C0.195833 17.9671 0 17.4963 0 16.9463V2.94629C0 2.39629 0.195833 1.92546 0.5875 1.53379C0.979167 1.14212 1.45 0.946289 2 0.946289H8C8.28333 0.946289 8.52083 1.04212 8.7125 1.23379C8.90417 1.42546 9 1.66296 9 1.94629C9 2.22962 8.90417 2.46712 8.7125 2.65879C8.52083 2.85046 8.28333 2.94629 8 2.94629H2V16.9463H8C8.28333 16.9463 8.52083 17.0421 8.7125 17.2338C8.90417 17.4255 9 17.663 9 17.9463C9 18.2296 8.90417 18.4671 8.7125 18.6588C8.52083 18.8505 8.28333 18.9463 8 18.9463H2ZM14.175 10.9463H7C6.71667 10.9463 6.47917 10.8505 6.2875 10.6588C6.09583 10.4671 6 10.2296 6 9.94629C6 9.66296 6.09583 9.42546 6.2875 9.23379C6.47917 9.04212 6.71667 8.94629 7 8.94629H14.175L12.3 7.07129C12.1167 6.88796 12.025 6.66296 12.025 6.39629C12.025 6.12962 12.1167 5.89629 12.3 5.69629C12.4833 5.49629 12.7167 5.39212 13 5.38379C13.2833 5.37546 13.525 5.47129 13.725 5.67129L17.3 9.24629C17.5 9.44629 17.6 9.67962 17.6 9.94629C17.6 10.213 17.5 10.4463 17.3 10.6463L13.725 14.2213C13.525 14.4213 13.2875 14.5171 13.0125 14.5088C12.7375 14.5005 12.5 14.3963 12.3 14.1963C12.1167 13.9963 12.0292 13.7588 12.0375 13.4838C12.0458 13.2088 12.1417 12.9796 12.325 12.7963L14.175 10.9463Z" fill="#64748B"/>
</svg>
